<svg width="14" height="13" viewBox="0 0 14 13" fill="none" xmlns="http://www.w3.org/2000/svg">
<path fill-rule="evenodd" clip-rule="evenodd" d="M3.70197 8.99036H10.6731L12.0193 12.0673H13.3654L7.93274 0.240356H6.53851L1.05774 12.0673H2.35582L3.70197 8.99036ZM4.13466 7.98074L6.68274 2.25959L7.16351 1.05766H7.21159L7.69235 2.25959L10.1924 7.98074H4.13466Z" fill="#57AD56"/>
<path d="M10.6731 8.99036L10.7876 8.94025L10.7549 8.86536H10.6731V8.99036ZM3.70197 8.99036V8.86536H3.62022L3.58745 8.94025L3.70197 8.99036ZM12.0193 12.0673L11.9048 12.1174L11.9375 12.1923H12.0193V12.0673ZM13.3654 12.0673V12.1923H13.5604L13.479 12.0151L13.3654 12.0673ZM7.93274 0.240356L8.04633 0.188179L8.01288 0.115356H7.93274V0.240356ZM6.53851 0.240356V0.115356H6.45867L6.42509 0.187799L6.53851 0.240356ZM1.05774 12.0673L0.944325 12.0147L0.862043 12.1923H1.05774V12.0673ZM2.35582 12.0673V12.1923H2.43757L2.47034 12.1174L2.35582 12.0673ZM6.68274 2.25959L6.79701 2.31048L6.7988 2.30601L6.68274 2.25959ZM4.13466 7.98074L4.02048 7.92989L3.94215 8.10574H4.13466V7.98074ZM7.16351 1.05766V0.932664H7.07888L7.04745 1.01124L7.16351 1.05766ZM7.21159 1.05766L7.32764 1.01124L7.29621 0.932664H7.21159V1.05766ZM7.69235 2.25959L7.57624 2.30603L7.57781 2.30964L7.69235 2.25959ZM10.1924 7.98074V8.10574H10.3834L10.3069 7.93069L10.1924 7.98074ZM10.6731 8.86536H3.70197V9.11536H10.6731V8.86536ZM12.1338 12.0172L10.7876 8.94025L10.5586 9.04046L11.9048 12.1174L12.1338 12.0172ZM13.3654 11.9423H12.0193V12.1923H13.3654V11.9423ZM7.81915 0.292534L13.2518 12.1195L13.479 12.0151L8.04633 0.188179L7.81915 0.292534ZM6.53851 0.365356H7.93274V0.115356H6.53851V0.365356ZM1.17115 12.1198L6.65192 0.292914L6.42509 0.187799L0.944325 12.0147L1.17115 12.1198ZM2.35582 11.9423H1.05774V12.1923H2.35582V11.9423ZM3.58745 8.94025L2.2413 12.0172L2.47034 12.1174L3.81649 9.04046L3.58745 8.94025ZM6.56855 2.20873L4.02048 7.92989L4.24885 8.0316L6.79693 2.31044L6.56855 2.20873ZM7.04745 1.01124L6.56668 2.21316L6.7988 2.30601L7.27957 1.10409L7.04745 1.01124ZM7.21159 0.932664H7.16351V1.18266H7.21159V0.932664ZM7.80841 2.21316L7.32764 1.01124L7.09553 1.10409L7.57629 2.30601L7.80841 2.21316ZM10.3069 7.93069L7.8069 2.20954L7.57781 2.30964L10.0778 8.03079L10.3069 7.93069ZM4.13466 8.10574H10.1924V7.85574H4.13466V8.10574Z" fill="#57AD56"/>
</svg>
