<svg width="11" height="13" viewBox="0 0 11 13" fill="none" xmlns="http://www.w3.org/2000/svg">
<path d="M9.58654 2.16343C9.77885 2.16343 9.875 2.11536 9.92308 1.97113L10.5481 0.384587C10.5962 0.288433 10.5481 0.240356 10.4519 0.240356H1.50962C0.692312 0.240356 0.355774 0.480741 0.355774 1.05766V11.3461C0.355774 11.8269 0.596159 12.0673 1.22116 12.0673H9.53847C9.73077 12.0673 9.82693 12.0192 9.875 11.875L10.5 10.2884C10.5481 10.1923 10.5 10.1442 10.4039 10.1442H2.8077V8.02882C2.8077 7.30766 3.19231 6.97113 4.29808 6.97113H7.61539C7.8077 6.97113 7.90385 6.92305 7.95193 6.77882L8.57693 5.24036C8.625 5.1442 8.57693 5.09613 8.48077 5.09613H2.85577V2.11536H9.58654V2.16343Z" fill="black"/>
</svg>
