<svg width="13" height="13" viewBox="0 0 13 13" fill="none" xmlns="http://www.w3.org/2000/svg">
<path fill-rule="evenodd" clip-rule="evenodd" d="M9.38461 7.30766L12.0288 11.875C12.0769 11.923 12.0769 12.0673 11.9808 12.0673H9.72115C9.52885 12.0673 9.48077 12.0192 9.38461 11.875L6.98077 7.54805H4.81731C3.71154 7.54805 3.32692 7.88459 3.32692 8.60574V12.0673H1.16346C1.01923 12.0673 0.875 11.923 0.875 11.7788V1.05766C0.875 0.480741 1.21154 0.240356 2.02885 0.240356H7.07692C10.0096 0.240356 11.7885 1.00959 11.7885 3.8942C11.7885 6.10574 10.6827 6.97113 9.38461 7.30766ZM3.27885 5.72113H7.41346C8.95192 5.72113 9.28846 5.1442 9.28846 3.8942C9.28846 2.69228 8.95192 2.11536 7.41346 2.11536H3.27885V5.72113Z" fill="black"/>
</svg>
