<svg width="10" height="14" viewBox="0 0 10 14" fill="none" xmlns="http://www.w3.org/2000/svg">
<path d="M5.04812 13.3077C3.41351 13.3077 2.11543 12.9231 1.05774 12.2981L1.25005 11.2404C2.35582 11.8654 3.60582 12.25 5.0962 12.25C7.30774 12.25 8.46159 11.2404 8.46159 9.79808C8.46159 6.67308 1.25005 8.30769 1.25005 4.26923C1.25005 2.53846 2.54812 1 5.57697 1C6.9712 1 8.2212 1.24038 9.23082 1.72115L9.03851 2.73077C7.93274 2.29808 6.87505 2.05769 5.62505 2.05769C3.26928 2.05769 2.40389 3.11538 2.40389 4.17308C2.40389 7.15385 9.61543 5.47115 9.61543 9.70192C9.56736 11.8173 8.02889 13.3077 5.04812 13.3077Z" fill="#57AD56" stroke="#57AD56" stroke-width="0.25"/>
</svg>
