<svg width="21" height="20" viewBox="0 0 21 20" fill="none" xmlns="http://www.w3.org/2000/svg">
<path fill-rule="evenodd" clip-rule="evenodd" d="M4.92306 14.3846H16.0769L18.2308 19.3077H20.3846L11.6923 0.384644H9.46152L0.692291 19.3077H2.76921L4.92306 14.3846ZM5.61537 12.7693L9.69229 3.61541L10.4615 1.69234H10.5384L11.3077 3.61541L15.3077 12.7693H5.61537Z" fill="#57AD56"/>
<path d="M16.0769 14.3846L16.1914 14.3345L16.1587 14.2596H16.0769V14.3846ZM4.92306 14.3846V14.2596H4.84131L4.80854 14.3345L4.92306 14.3846ZM18.2308 19.3077L18.1162 19.3578L18.149 19.4327H18.2308V19.3077ZM20.3846 19.3077V19.4327H20.5796L20.4982 19.2555L20.3846 19.3077ZM11.6923 0.384644L11.8059 0.332466L11.7724 0.259644H11.6923V0.384644ZM9.46152 0.384644V0.259644H9.38168L9.34811 0.332086L9.46152 0.384644ZM0.692291 19.3077L0.578877 19.2552L0.496595 19.4327H0.692291V19.3077ZM2.76921 19.3077V19.4327H2.85097L2.88373 19.3578L2.76921 19.3077ZM9.69229 3.61541L9.80656 3.66631L9.80835 3.66184L9.69229 3.61541ZM5.61537 12.7693L5.50118 12.7184L5.42286 12.8943H5.61537V12.7693ZM10.4615 1.69234V1.56734H10.3769L10.3455 1.64591L10.4615 1.69234ZM10.5384 1.69234L10.6545 1.64591L10.6231 1.56734H10.5384V1.69234ZM11.3077 3.61541L11.1916 3.66186L11.1931 3.66546L11.3077 3.61541ZM15.3077 12.7693V12.8943H15.4987L15.4222 12.7192L15.3077 12.7693ZM16.0769 14.2596H4.92306V14.5096H16.0769V14.2596ZM18.3453 19.2576L16.1914 14.3345L15.9624 14.4347L18.1162 19.3578L18.3453 19.2576ZM20.3846 19.1827H18.2308V19.4327H20.3846V19.1827ZM11.5787 0.436821L20.271 19.3599L20.4982 19.2555L11.8059 0.332466L11.5787 0.436821ZM9.46152 0.509644H11.6923V0.259644H9.46152V0.509644ZM0.805705 19.3603L9.57494 0.437201L9.34811 0.332086L0.578877 19.2552L0.805705 19.3603ZM2.76921 19.1827H0.692291V19.4327H2.76921V19.1827ZM4.80854 14.3345L2.65469 19.2576L2.88373 19.3578L5.03758 14.4347L4.80854 14.3345ZM9.5781 3.56456L5.50118 12.7184L5.72956 12.8201L9.80648 3.66627L9.5781 3.56456ZM10.3455 1.64591L9.57623 3.56899L9.80835 3.66184L10.5776 1.73876L10.3455 1.64591ZM10.5384 1.56734H10.4615V1.81734H10.5384V1.56734ZM11.4237 3.56899L10.6545 1.64591L10.4224 1.73876L11.1916 3.66184L11.4237 3.56899ZM15.4222 12.7192L11.4222 3.56536L11.1931 3.66546L15.1931 12.8193L15.4222 12.7192ZM5.61537 12.8943H15.3077V12.6443H5.61537V12.8943Z" fill="#57AD56"/>
</svg>
