<svg width="19" height="20" viewBox="0 0 19 20" fill="none" xmlns="http://www.w3.org/2000/svg">
<path fill-rule="evenodd" clip-rule="evenodd" d="M15.3846 9.30772C16.923 8.46157 17.5384 7.00003 17.5384 5.15387C17.5384 1.00003 14.1538 0.384644 10.6153 0.384644H2.53841C1.23072 0.384644 0.692261 0.769259 0.692261 1.69234V18.1539C0.692261 18.9231 1.07688 19.3077 2.07688 19.3077H12C15.7692 19.3077 18.3846 17.8462 18.3846 14.077C18.4615 11.7693 17.5384 9.84618 15.3846 9.30772ZM4.69226 3.38464H10.923C13 3.38464 13.6153 4.15387 13.6153 5.76926C13.6153 7.38464 13 8.15387 10.923 8.15387H4.69226V3.38464ZM4.69226 16.2308H11.6923C13.923 16.2308 14.5384 15.4616 14.5384 13.6923C14.5384 11.9231 13.923 11.077 11.6923 11.077H7.07688C5.30765 11.077 4.69226 11.6154 4.69226 12.7693V16.2308Z" fill="white"/>
</svg>
