<svg width="18" height="20" viewBox="0 0 18 20" fill="none" xmlns="http://www.w3.org/2000/svg">
<path fill-rule="evenodd" clip-rule="evenodd" d="M13.6154 11.6923L17.8462 19C17.9231 19.077 17.9231 19.3077 17.7692 19.3077H14.1538C13.8462 19.3077 13.7692 19.2308 13.6154 19L9.76923 12.077H6.30769C4.53846 12.077 3.92308 12.6154 3.92308 13.7693V19.3077H0.461538C0.230769 19.3077 0 19.077 0 18.8462V1.69234C0 0.769259 0.538462 0.384644 1.84615 0.384644H9.92308C14.6154 0.384644 17.4615 1.61541 17.4615 6.2308C17.4615 9.76926 15.6923 11.1539 13.6154 11.6923ZM3.84615 9.15387H10.4615C12.9231 9.15387 13.4615 8.2308 13.4615 6.2308C13.4615 4.30772 12.9231 3.38464 10.4615 3.38464H3.84615V9.15387Z" fill="white"/>
</svg>
