<svg width="15" height="21" viewBox="0 0 15 21" fill="none" xmlns="http://www.w3.org/2000/svg">
<path d="M7.07691 20.6923C4.46152 20.6923 2.3846 20.0769 0.692291 19.0769L0.999984 17.3846C2.76921 18.3846 4.76921 19 7.15383 19C10.6923 19 12.5384 17.3846 12.5384 15.0769C12.5384 10.0769 0.999984 12.6923 0.999984 6.23077C0.999984 3.46154 3.07691 1 7.92306 1C10.1538 1 12.1538 1.38462 13.7692 2.15385L13.4615 3.76923C11.6923 3.07692 9.99998 2.69231 7.99998 2.69231C4.23075 2.69231 2.84614 4.38462 2.84614 6.07692C2.84614 10.8462 14.3846 8.15385 14.3846 14.9231C14.3077 18.3077 11.8461 20.6923 7.07691 20.6923Z" fill="#57AD56" stroke="#57AD56" stroke-width="0.25"/>
</svg>
