<svg width="12" height="13" viewBox="0 0 12 13" fill="none" xmlns="http://www.w3.org/2000/svg">
<path fill-rule="evenodd" clip-rule="evenodd" d="M9.86543 5.81728C10.827 5.28843 11.2116 4.37497 11.2116 3.22113C11.2116 0.624972 9.0962 0.240356 6.88466 0.240356H1.83659C1.01928 0.240356 0.682739 0.480741 0.682739 1.05766V11.3461C0.682739 11.8269 0.923124 12.0673 1.54812 12.0673H7.75005C10.1058 12.0673 11.7404 11.1538 11.7404 8.79805C11.7885 7.35574 11.2116 6.15382 9.86543 5.81728ZM3.18274 2.11536H7.07697C8.37505 2.11536 8.75966 2.59613 8.75966 3.60574C8.75966 4.61536 8.37505 5.09613 7.07697 5.09613H3.18274V2.11536ZM3.18274 10.1442H7.55774C8.95197 10.1442 9.33659 9.66343 9.33659 8.55766C9.33659 7.4519 8.95197 6.92305 7.55774 6.92305H4.67312C3.56735 6.92305 3.18274 7.25959 3.18274 7.98074V10.1442Z" fill="black"/>
</svg>
